<svg width="24" height="24" viewBox="0 0 24 24" fill="none" xmlns="http://www.w3.org/2000/svg">
<g id="Icon: additional driver" clip-path="url(#clip0_56617_854)">
<path id="Vector" d="M10.524 9.19277C10.9107 9.27073 11.2938 9.30886 11.6692 9.30886C12.9877 9.30886 14.2093 8.83599 15.13 7.94546C16.5097 6.61108 16.9404 4.64793 16.2271 2.94425C15.6307 1.5194 14.2381 0.430843 12.5923 0.102512C11.0676 -0.20135 9.52987 0.177624 8.37293 1.14213C6.91986 2.35417 6.35226 4.29456 6.9275 6.08644C7.44691 7.70476 8.75779 8.83656 10.5235 9.19277H10.524ZM8.76661 4.40894C8.84769 3.34883 9.6039 2.37237 10.6492 1.97804C10.973 1.8557 11.3038 1.79538 11.6328 1.79538C12.2063 1.79538 12.775 1.97917 13.2945 2.34051C14.1911 2.96417 14.6288 4.04476 14.4379 5.16119C14.2616 6.18886 13.5747 7.00599 12.5999 7.34798C11.5088 7.73037 10.6756 7.43618 10.1692 7.1215C9.25018 6.55077 8.6867 5.4605 8.7672 4.40894H8.76661Z" fill="#FEFEFF"/>
<path id="Vector_2" d="M14.8184 10.3179H8.47492C5.74798 10.3179 3.5293 12.5433 3.5293 15.2781V17.6424C3.5293 18.224 4.01581 18.6951 4.61631 18.6951H5.92543C5.99888 20.2327 6.72923 21.6655 7.96608 22.6732C9.02959 23.5399 10.3481 24.0008 11.7042 24.0008C12.0785 24.0008 12.4557 23.9655 12.8306 23.8944C15.4259 23.401 17.3373 21.2444 17.4907 18.6974C17.5424 18.6957 17.5964 18.6957 17.6499 18.6957H17.7539C17.8097 18.6957 17.8661 18.6968 17.9237 18.698C17.9601 18.6986 17.9972 18.6991 18.0348 18.6997C18.0348 18.6986 18.0342 18.6974 18.0336 18.6957H18.677C19.2775 18.6957 19.764 18.2245 19.764 17.643V15.2787C19.764 12.5439 17.5453 10.319 14.8184 10.319V10.3179ZM6.80503 15.3913C6.54708 15.7914 6.38021 16.1817 6.21745 16.5892H5.70391V15.2775C5.70391 13.7036 6.94722 12.4233 8.47551 12.4233H14.819C16.3473 12.4233 17.5906 13.7036 17.5906 15.2775V16.5892H17.1787C16.768 15.3322 15.8173 14.2061 14.5604 13.5141C13.2637 12.8 11.7465 12.6008 10.2888 12.9531C8.82923 13.3053 7.59179 14.1713 6.80503 15.3913ZM15.2696 17.4199H13.6409C13.2772 16.7178 12.5427 16.2768 11.7013 16.2768C10.8605 16.2768 10.1266 16.7178 9.76288 17.4199H8.04129C8.25987 16.6586 8.72052 15.9774 9.34394 15.508C10.2764 14.8058 11.4727 14.5549 12.6261 14.82C13.8671 15.1051 14.9224 16.0878 15.319 17.2623C15.299 17.313 15.282 17.3653 15.2696 17.4194V17.4199ZM10.6871 21.9415C9.39917 21.5739 8.38032 20.5764 8.036 19.3444H9.74937C9.96325 19.7871 10.3463 20.0762 10.6877 20.2736V21.9415H10.6871ZM11.8511 18.5045C11.8376 18.5256 11.8012 18.5819 11.6472 18.5637C11.5303 18.5495 11.5168 18.4396 11.5162 18.393C11.5162 18.3429 11.5285 18.2251 11.6613 18.2063C11.7953 18.1876 11.8306 18.2399 11.8458 18.2621C11.8911 18.3298 11.8934 18.4385 11.8505 18.5051L11.8511 18.5045ZM12.716 21.9397V20.2776C13.0557 20.0864 13.4376 19.8008 13.6544 19.345H15.3678C15.0258 20.5707 14.0069 21.5676 12.716 21.9403V21.9397Z" fill="#FEFEFF"/>
</g>
<defs>
<clipPath id="clip0_56617_854">
<rect width="24" height="24" fill="white"/>
</clipPath>
</defs>
</svg>
