<svg width="24" height="24" viewBox="0 0 24 24" fill="none" xmlns="http://www.w3.org/2000/svg">
<g id="icon: Baby seat2">
<path id="Vector" d="M7.26532 6.6837C8.32075 6.6837 9.38343 6.18916 10.0578 5.0737C11.2644 3.07916 10.0234 0.298249 7.70705 0.0200675C7.59662 0.00643111 7.41558 0.000976562 7.23274 0.000976562C7.03994 0.000976562 6.84532 0.00824929 6.72765 0.0200675C5.25222 0.178249 3.98136 1.6237 3.8836 3.08825C3.73696 5.28643 5.49119 6.6837 7.26532 6.6837Z" fill="#FEFEFF"/>
<path id="Vector_2" d="M17.5692 13.641C16.7844 13.641 15.9145 13.8564 15.2402 14.0255C14.0716 14.3182 12.3907 15.0737 11.1461 15.0737C11.0139 15.0737 10.8872 15.0655 10.7659 15.0464C8.11195 14.6419 8.04316 11.8737 7.27467 9.84187C6.96057 9.01278 6.3179 7.36914 5.25251 7.36914C5.1973 7.36914 5.14027 7.37369 5.08324 7.38278C3.98799 7.55732 3.01402 8.7455 2.60126 9.71369C1.10501 13.2219 2.52885 18.3191 5.46161 20.7037C5.34846 21.6828 5.14299 22.6591 5.09773 23.6428C5.12217 23.7946 5.28057 23.99 5.44169 23.9991H14.8193C15.0818 23.9964 15.2212 23.791 15.2565 23.5482L14.9379 21.2182C15.3904 20.9428 15.8774 20.7364 16.3282 20.4564C18.0571 19.3828 19.7923 17.5128 19.5904 15.3146C19.4701 14.0046 18.5911 13.6391 17.5701 13.6391L17.5692 13.641ZM15.3289 18.8337C15.1605 18.9382 14.9587 19.0428 14.7442 19.1528C14.5034 19.2773 14.23 19.4173 13.9539 19.5855L12.8849 20.2355L13.0551 21.4791L13.1393 22.091H7.18777C7.18958 22.0791 7.19139 22.0682 7.1932 22.0564C7.24842 21.691 7.30454 21.3128 7.3498 20.9246L7.47018 19.881L6.65734 19.22C5.55122 18.321 4.65781 16.8328 4.20613 15.1373C3.75355 13.44 3.80514 11.7373 4.34734 10.4664C4.5148 10.0728 4.80174 9.71005 5.04432 9.48914C5.15837 9.69732 5.30773 10.0201 5.49691 10.521C5.63449 10.8855 5.75488 11.3119 5.88161 11.7637C6.14592 12.7037 6.44553 13.7701 7.04113 14.7037C7.84131 15.9573 8.99812 16.7082 10.4799 16.9337C10.6917 16.9655 10.9153 16.9819 11.1452 16.9819C12.292 16.9819 13.5023 16.581 14.5704 16.2264C14.9913 16.0864 15.3895 15.9546 15.6991 15.8773C16.2522 15.7391 17.0089 15.5491 17.5683 15.5491C17.619 15.5491 17.6633 15.551 17.7004 15.5537C17.7738 16.8391 16.4757 18.1201 15.3271 18.8328L15.3289 18.8337Z" fill="#FEFEFF"/>
<path id="Vector_3" d="M9.8758 7.65382C9.2277 7.67928 8.49451 8.02291 8.05369 8.49746L8.04102 8.55746C8.3189 9.20291 8.56149 9.86382 8.78054 10.532C9.18334 11.7602 9.28925 13.4447 10.7755 13.8211C11.8409 14.0902 13.2376 13.2093 14.3093 13.0429L14.4207 12.9656L12.9335 10.0702L16.6365 7.27837C17.7146 6.14473 16.8402 4.27928 15.2987 4.38837C14.9493 4.41291 14.7031 4.54019 14.4161 4.72019C13.8441 5.07928 10.5963 7.69655 10.3447 7.702C10.2143 7.70473 10.0595 7.64655 9.87671 7.65382H9.8758Z" fill="#FEFEFF"/>
<path id="Vector_4" d="M22.3953 12.0783C22.0187 11.7701 21.7028 11.7274 21.2448 11.6419C20.1568 11.4383 18.942 11.2683 17.8404 11.1265C17.5345 11.0874 17.2665 11.0347 16.9977 11.0347C16.7696 11.0347 16.5397 11.0729 16.2862 11.1892C15.639 11.4865 15.401 12.2019 15.0742 12.7819C15.6553 12.7365 16.2392 12.5447 16.8284 12.4828C17.0556 12.4592 17.2865 12.4456 17.5173 12.4456C18.7474 12.4456 19.9694 12.8256 20.5053 14.0692C20.5759 14.2319 20.7379 14.9619 20.7732 14.9947C20.8329 15.0483 20.9687 15.0692 21.1307 15.0692C21.4421 15.0692 21.8521 14.9919 22.0069 14.921C23.1293 14.411 23.3565 12.8665 22.3953 12.0783Z" fill="#FEFEFF"/>
</g>
</svg>
