<svg width="16" height="16" viewBox="0 0 16 16" fill="none" xmlns="http://www.w3.org/2000/svg">
<g id="icon-car doors">
<path id="Vector" d="M11.9262 5.9997V8.69692C12.6715 9.38994 13.4399 10.0679 14.1882 10.7608C14.3635 10.923 14.8618 11.3349 14.95 11.5066C15.1584 11.9129 14.6713 12.3343 14.2403 12.1154C13.4721 11.4561 12.7428 10.7551 11.9902 10.0794L11.9262 10.0504V13.2931C11.9262 14.111 10.8667 14.9902 9.97486 14.9785C8.68431 14.9253 7.33033 15.0464 6.04726 14.9785C5.19921 14.9337 4.44128 14.4286 4.17539 13.688C4.14421 13.6011 4.07481 13.374 4.07481 13.2929V10.0502L4.01074 10.0793L1.77817 12.1117C1.28549 12.355 0.760552 11.8294 1.11976 11.4132L4.07481 8.71602V5.99931L4.01074 6.02836L1.7645 8.06765C1.32606 8.27916 0.827824 7.85146 1.05826 7.44247C2.03231 6.49856 3.06744 5.60144 4.06392 4.67468C4.09809 3.39314 3.87961 2.27865 4.8133 1.21057C5.82281 0.0557306 7.16141 -0.0620143 8.69371 0.021031C10.2061 0.103101 11.5334 1.12382 11.8476 2.47827C12.0139 3.19605 11.8756 3.94638 11.9373 4.67507L14.8071 7.27482C15.2605 7.66295 14.8289 8.30275 14.254 8.07194C13.4764 7.41615 12.7482 6.70598 11.9905 6.02894L11.9264 5.9999L11.9262 5.9997ZM10.9017 4.32476C10.8814 3.46799 11.0465 2.67322 10.4925 1.92327C9.75447 0.924587 8.56279 0.881894 7.34998 0.955777C6.2888 1.0203 5.37176 1.74003 5.15201 2.68862C5.03156 3.20872 5.13194 3.79257 5.09905 4.32476C5.53941 3.99668 6.04811 3.78887 6.62323 3.75904C7.59237 3.70894 8.63626 3.78068 9.60818 3.78224C10.097 3.84267 10.5231 4.04639 10.9017 4.32476ZM6.60914 4.70061C5.6951 4.80841 5.14817 5.58311 5.09776 6.37848C5.01021 7.75964 5.1661 9.21702 5.09776 10.6062C5.13941 11.0557 5.43049 11.5049 5.96311 11.5497L10.0385 11.5507C10.5528 11.5053 10.8646 11.067 10.9026 10.6257C10.8231 9.22443 11.0053 7.73001 10.9026 6.33968C10.8438 5.54373 10.2392 4.74935 9.31325 4.69398C8.43658 4.64154 7.49221 4.73044 6.60892 4.70061H6.60914ZM10.9019 12.2708C10.6292 12.3889 10.3655 12.4698 10.0603 12.486C8.70716 12.5572 7.28015 12.4301 5.91933 12.486C5.62889 12.4671 5.35874 12.3829 5.09883 12.271V13.235C5.09883 13.6658 5.67951 14.0184 6.11133 14.0442C7.3393 14.1171 8.6527 13.9869 9.88965 14.0442C10.3287 14.0654 10.9021 13.6184 10.9021 13.2155V12.271L10.9019 12.2708Z" fill="#FEFEFF"/>
</g>
</svg>
