<svg width="16" height="16" viewBox="0 0 16 16" fill="none" xmlns="http://www.w3.org/2000/svg">
<g id="check-circle-broken">
<g clip-path="url(#clip0_224_5037)">
<path id="Icon" d="M14.6668 7.39065V8.00398C14.666 9.44159 14.2005 10.8404 13.3397 11.9919C12.4789 13.1433 11.269 13.9856 9.8904 14.3932C8.51178 14.8009 7.03834 14.7519 5.68981 14.2537C4.34128 13.7555 3.18993 12.8347 2.40747 11.6287C1.62501 10.4227 1.25336 8.99602 1.34795 7.56152C1.44254 6.12702 1.9983 4.76153 2.93235 3.66869C3.8664 2.57586 5.12869 1.81423 6.53096 1.49741C7.93323 1.18059 9.40034 1.32554 10.7135 1.91065M14.6668 2.66683L8.00016 9.34016L6.00016 7.34016" stroke="#72D38D" stroke-linecap="round" stroke-linejoin="round"/>
</g>
</g>
<defs>
<clipPath id="clip0_224_5037">
<rect width="16" height="16" rx="8" fill="white"/>
</clipPath>
</defs>
</svg>
