<svg width="16" height="16" viewBox="0 0 16 16" fill="none" xmlns="http://www.w3.org/2000/svg">
<g id="tabler:manual-gearbox">
<g id="Group">
<path id="Vector" d="M3.33333 5.33317C2.97971 5.33317 2.64057 5.19269 2.39052 4.94265C2.14048 4.6926 2 4.35346 2 3.99984C2 3.64622 2.14048 3.30708 2.39052 3.05703C2.64057 2.80698 2.97971 2.6665 3.33333 2.6665C3.68696 2.6665 4.02609 2.80698 4.27614 3.05703C4.52619 3.30708 4.66667 3.64622 4.66667 3.99984C4.66667 4.35346 4.52619 4.6926 4.27614 4.94265C4.02609 5.19269 3.68696 5.33317 3.33333 5.33317ZM3.33333 5.33317V10.6665M8 5.33317C7.64638 5.33317 7.30724 5.19269 7.05719 4.94265C6.80714 4.6926 6.66667 4.35346 6.66667 3.99984C6.66667 3.64622 6.80714 3.30708 7.05719 3.05703C7.30724 2.80698 7.64638 2.6665 8 2.6665C8.35362 2.6665 8.69276 2.80698 8.94281 3.05703C9.19286 3.30708 9.33333 3.64622 9.33333 3.99984C9.33333 4.35346 9.19286 4.6926 8.94281 4.94265C8.69276 5.19269 8.35362 5.33317 8 5.33317ZM8 5.33317V10.6665M3.33333 10.6665C3.68696 10.6665 4.02609 10.807 4.27614 11.057C4.52619 11.3071 4.66667 11.6462 4.66667 11.9998C4.66667 12.3535 4.52619 12.6926 4.27614 12.9426C4.02609 13.1927 3.68696 13.3332 3.33333 13.3332C2.97971 13.3332 2.64057 13.1927 2.39052 12.9426C2.14048 12.6926 2 12.3535 2 11.9998C2 11.6462 2.14048 11.3071 2.39052 11.057C2.64057 10.807 2.97971 10.6665 3.33333 10.6665ZM8 10.6665C8.35362 10.6665 8.69276 10.807 8.94281 11.057C9.19286 11.3071 9.33333 11.6462 9.33333 11.9998C9.33333 12.3535 9.19286 12.6926 8.94281 12.9426C8.69276 13.1927 8.35362 13.3332 8 13.3332C7.64638 13.3332 7.30724 13.1927 7.05719 12.9426C6.80714 12.6926 6.66667 12.3535 6.66667 11.9998C6.66667 11.6462 6.80714 11.3071 7.05719 11.057C7.30724 10.807 7.64638 10.6665 8 10.6665ZM11.3333 3.99984C11.3333 4.35346 11.4738 4.6926 11.7239 4.94265C11.9739 5.19269 12.313 5.33317 12.6667 5.33317C13.0203 5.33317 13.3594 5.19269 13.6095 4.94265C13.8595 4.6926 14 4.35346 14 3.99984C14 3.64622 13.8595 3.30708 13.6095 3.05703C13.3594 2.80698 13.0203 2.6665 12.6667 2.6665C12.313 2.6665 11.9739 2.80698 11.7239 3.05703C11.4738 3.30708 11.3333 3.64622 11.3333 3.99984Z" stroke="#FEFEFF" stroke-linecap="round" stroke-linejoin="round"/>
<path id="Vector_2" d="M12.6668 5.33301V6.66634C12.6668 7.01996 12.5264 7.3591 12.2763 7.60915C12.0263 7.8592 11.6871 7.99967 11.3335 7.99967H3.3335" stroke="#FEFEFF" stroke-linecap="round" stroke-linejoin="round"/>
</g>
</g>
</svg>
